<svg width="37" height="12" viewBox="0 0 37 12" fill="none" xmlns="http://www.w3.org/2000/svg">
<path d="M0.00426134 0.818182H2.26136L5.28409 8.19602H5.40341L8.42614 0.818182H10.6832V11H8.91335V4.00497H8.81889L6.00497 10.9702H4.68253L1.86861 3.99006H1.77415V11H0.00426134V0.818182ZM15.9929 11.1491C15.2273 11.1491 14.5661 10.9901 14.0092 10.6719C13.4557 10.3504 13.0298 9.89631 12.7315 9.30966C12.4332 8.7197 12.2841 8.02533 12.2841 7.22656C12.2841 6.44105 12.4332 5.75166 12.7315 5.15838C13.0331 4.56179 13.4541 4.09777 13.9943 3.76633C14.5346 3.43158 15.1693 3.2642 15.8984 3.2642C16.3691 3.2642 16.8132 3.34044 17.2308 3.4929C17.6518 3.64205 18.023 3.87405 18.3445 4.18892C18.6693 4.50379 18.9245 4.90483 19.1101 5.39205C19.2957 5.87595 19.3885 6.45265 19.3885 7.12216V7.67401H13.1293V6.46094H17.6634C17.66 6.11624 17.5855 5.80966 17.4396 5.54119C17.2938 5.26941 17.09 5.05563 16.8281 4.89986C16.5696 4.74408 16.268 4.66619 15.9233 4.66619C15.5554 4.66619 15.2322 4.75568 14.9538 4.93466C14.6754 5.11032 14.4583 5.34233 14.3026 5.63068C14.1501 5.91572 14.0722 6.22893 14.0689 6.57031V7.62926C14.0689 8.07339 14.1501 8.45455 14.3125 8.77273C14.4749 9.08759 14.7019 9.32955 14.9936 9.49858C15.2853 9.6643 15.6267 9.74716 16.0178 9.74716C16.2796 9.74716 16.5166 9.7107 16.7287 9.63778C16.9408 9.56155 17.1248 9.45052 17.2805 9.30469C17.4363 9.15885 17.554 8.97822 17.6335 8.76278L19.3139 8.9517C19.2079 9.39583 19.0057 9.78362 18.7074 10.1151C18.4124 10.4432 18.0346 10.6984 17.5739 10.8807C17.1132 11.0597 16.5862 11.1491 15.9929 11.1491ZM22.7108 6.52557V11H20.911V3.36364H22.6312V4.66122H22.7207C22.8964 4.23366 23.1764 3.89394 23.5609 3.64205C23.9487 3.39015 24.4276 3.2642 24.9977 3.2642C25.5247 3.2642 25.9837 3.37689 26.3748 3.60227C26.7692 3.82765 27.0742 4.15412 27.2896 4.58168C27.5083 5.00923 27.6161 5.52794 27.6127 6.13778V11H25.813V6.41619C25.813 5.90578 25.6805 5.50639 25.4153 5.21804C25.1535 4.92969 24.7905 4.78551 24.3265 4.78551C24.0117 4.78551 23.7316 4.85511 23.4863 4.99432C23.2444 5.13021 23.0538 5.32741 22.9146 5.58594C22.7787 5.84446 22.7108 6.15767 22.7108 6.52557ZM34.3095 7.78835V3.36364H36.1092V11H34.3642V9.64276H34.2846C34.1123 10.0703 33.8289 10.42 33.4345 10.6918C33.0434 10.9635 32.5611 11.0994 31.9877 11.0994C31.4873 11.0994 31.0448 10.9884 30.6603 10.7663C30.2792 10.541 29.9809 10.2145 29.7654 9.78693C29.55 9.35606 29.4423 8.8357 29.4423 8.22585V3.36364H31.242V7.94744C31.242 8.43134 31.3746 8.81581 31.6397 9.10085C31.9049 9.38589 32.2529 9.52841 32.6838 9.52841C32.9489 9.52841 33.2058 9.46378 33.4544 9.33452C33.7029 9.20526 33.9068 9.01302 34.0659 8.75781C34.2283 8.49929 34.3095 8.17614 34.3095 7.78835Z" fill="#175CD3"/>
</svg>
